<svg width="28" height="12" viewBox="0 0 28 12" fill="none" xmlns="http://www.w3.org/2000/svg">
<path d="M5.9199 2.08159C6.23089 1.69261 6.44193 1.17032 6.38627 0.636597C5.93102 0.659234 5.37548 0.93694 5.05385 1.32623C4.76506 1.65959 4.50945 2.20375 4.57609 2.7151C5.08713 2.75943 5.5977 2.45966 5.9199 2.08159Z" fill="#000008"/>
<path d="M6.38048 2.81495C5.63833 2.77074 5.00732 3.23615 4.65291 3.23615C4.2983 3.23615 3.75557 2.83722 3.16857 2.84797C2.40455 2.8592 1.69562 3.29118 1.30791 3.97824C0.510465 5.35269 1.09747 7.39149 1.87295 8.5109C2.24953 9.06471 2.70339 9.6745 3.30141 9.65259C3.86644 9.63042 4.08791 9.28672 4.77473 9.28672C5.46105 9.28672 5.66054 9.65259 6.25866 9.64151C6.87893 9.63042 7.2667 9.08742 7.64329 8.53307C8.07531 7.90176 8.25216 7.29217 8.26328 7.25871C8.25216 7.24762 7.06724 6.79306 7.05625 5.43003C7.04506 4.28875 7.98654 3.74589 8.03085 3.71222C7.49919 2.92589 6.66848 2.83722 6.38048 2.81495Z" fill="#000008"/>
<path d="M12.8425 1.2704C14.4556 1.2704 15.5788 2.3823 15.5788 4.00113C15.5788 5.62575 14.4325 6.74342 12.8021 6.74342H11.0161V9.58361H9.72578V1.2704L12.8425 1.2704ZM11.0161 5.66031H12.4967C13.6202 5.66031 14.2596 5.05546 14.2596 4.00691C14.2596 2.95847 13.6202 2.35929 12.5025 2.35929H11.0161V5.66031Z" fill="#000008"/>
<path d="M15.9159 7.86108C15.9159 6.80096 16.7283 6.15001 18.1686 6.06933L19.8277 5.97143V5.50483C19.8277 4.83076 19.3725 4.42749 18.6122 4.42749C17.8919 4.42749 17.4426 4.77309 17.3332 5.3147H16.158C16.2271 4.22003 17.1603 3.4135 18.6582 3.4135C20.1273 3.4135 21.0663 4.19125 21.0663 5.40682V9.58359H19.8737V8.58693H19.845C19.4937 9.261 18.7274 9.68727 17.9324 9.68727C16.7456 9.68727 15.9159 8.94986 15.9159 7.86108ZM19.8277 7.3138V6.83564L18.3355 6.92776C17.5923 6.97965 17.1719 7.30802 17.1719 7.82652C17.1719 8.35646 17.6097 8.70216 18.278 8.70216C19.1478 8.70216 19.8277 8.10299 19.8277 7.3138Z" fill="#000008"/>
<path d="M22.1922 11.8132V10.8049C22.2842 10.8279 22.4915 10.8279 22.5953 10.8279C23.1714 10.8279 23.4825 10.586 23.6725 9.96385C23.6725 9.95229 23.7821 9.59515 23.7821 9.58937L21.593 3.52295H22.9409L24.4735 8.45447H24.4964L26.029 3.52295H27.3425L25.0724 9.9004C24.5542 11.3696 23.955 11.8419 22.6991 11.8419C22.5953 11.8419 22.2842 11.8304 22.1922 11.8132Z" fill="#000008"/>
</svg>
